<svg width="1000" height="1000" viewBox="0 0 1000 1000" xmlns="http://www.w3.org/2000/svg"><defs/><path fill="#ffffff" transform="matrix(0.5119030826344292 0 0 0.5119030826344292 14.13155313225752 9.123767349352288)" d="M 1111.6114786789 721.49930366749 C 1136.7054786789 736.42530366749 1151.0954786789 758.36030366749 1151.0954786789 781.68030366749 C 1151.0954786789 805.00030366749 1136.7044786789 826.93330366749 1111.6114786789 841.86130366749 L 838.5934786789 1004.32930366749 C 824.0364786789 1012.98930366749 809.6374786789 1017.38030366749 795.8104786789 1017.38030366749 L 795.8074786789 1017.38030366749 C 766.0284786789 1017.38030366749 735.9824786789 995.30130366749 735.9824786789 945.98330366749 C 735.9824786789 945.98330366749 717.1334786789 1030.56530366749 795.8074786789 1030.56530366749 C 812.0464786789 1030.56530366749 828.7104786789 1025.55130366749 845.3314786789 1015.65930366749 L 1118.3534786789 853.19130366749 C 1147.5424786789 835.83230366749 1164.2784786789 809.76330366749 1164.2784786789 781.68130366749 C 1164.2784786789 738.82930366749 1111.6114786789 721.49930366749 1111.6114786789 721.49930366749 Z"/><path fill="#ffffff" transform="matrix(0.5119030826344292 0 0 0.5119030826344292 14.13155313225752 9.123767349352288)" d="M 942.5594786789 651.83630366749 C 946.8244786789 656.29830366749 950.5694786789 661.24130366749 954.0104786789 666.38230366749 C 959.4214786789 674.69530366749 963.9064786789 683.59430366749 967.5834786789 692.81330366749 C 972.0104786789 691.59730366749 976.4004786789 690.25330366749 980.7434786789 688.75830366749 C 986.9514786789 686.60030366749 993.0804786789 684.16630366749 999.0244786789 681.33130366749 C 998.4994786789 680.77930366749 997.9754786789 680.22630366749 997.4404786789 679.68330366749 C 996.9914786789 679.22130366749 996.5304786789 678.77030366749 996.0744786789 678.31530366749 L 938.1074786789 643.82030366749 C 935.7684786789 643.10230366749 933.4104786789 642.44130366749 931.0344786789 641.84030366749 C 935.1954786789 644.72730366749 939.0384786789 648.13130366749 942.5594786789 651.83630366749 Z"/><path fill="#ffffff" transform="matrix(0.5119030826344292 0 0 0.5119030826344292 14.13155313225752 9.123767349352288)" d="M 855.6414786789 769.19730366749 C 868.5294786789 768.86130366749 881.4174786789 768.63630366749 894.3064786789 768.48630366749 C 894.3934786789 750.28330366749 894.6704786789 732.08030366749 895.3184786789 713.88030366749 C 895.3384786789 713.28530366749 895.3604786789 712.69130366749 895.3804786789 712.09630366749 C 894.6484786789 712.07530366749 893.9144786789 712.06030366749 893.1844786789 712.03230366749 C 882.9034786789 711.64930366749 872.6904786789 710.60430366749 862.5854786789 708.82630366749 C 853.3104786789 707.16230366749 844.0964786789 704.91630366749 835.1474786789 701.96430366749 C 834.7124786789 703.54330366749 834.2884786789 705.12530366749 833.8854786789 706.71130366749 C 828.6874786789 727.41330366749 826.2754786789 748.71230366749 826.0154786789 770.06530366749 C 835.8904786789 769.71430366749 845.7654786789 769.43230366749 855.6414786789 769.19730366749 Z"/><path fill="#ffffff" transform="matrix(0.5119030826344292 0 0 0.5119030826344292 14.13155313225752 9.123767349352288)" d="M 895.0864786789 833.13930366749 C 894.4844786789 814.46230366749 894.2554786789 795.78530366749 894.2724786789 777.10830366749 C 881.3954786789 776.95830366749 868.5184786789 776.73330366749 855.6414786789 776.39730366749 C 845.7614786789 776.16230366749 835.8814786789 775.88030366749 826.0014786789 775.53030366749 C 826.1614786789 796.73030366749 828.4764786789 817.98830366749 833.5654786789 838.60530366749 C 833.9764786789 840.25830366749 834.4094786789 841.90830366749 834.8544786789 843.55430366749 C 844.0834786789 840.43230366749 853.6144786789 838.08830366749 863.2134786789 836.36230366749 C 873.7384786789 834.52530366749 884.3964786789 833.46130366749 895.0864786789 833.13930366749 Z"/><path fill="#ffffff" transform="matrix(0.5119030826344292 0 0 0.5119030826344292 14.13155313225752 9.123767349352288)" d="M 938.7304786789 777.33630366749 C 926.9364786789 777.34930366749 915.1424786789 777.29830366749 903.3474786789 777.19530366749 C 903.3604786789 795.80730366749 903.1314786789 814.42230366749 902.5364786789 833.03430366749 C 908.7294786789 833.04830366749 914.9244786789 833.30730366749 921.1024786789 833.81330366749 C 935.2794786789 834.99230366749 949.4044786789 837.49330366749 963.0754786789 841.56330366749 C 968.6654786789 820.57630366749 971.2804786789 798.86530366749 971.5894786789 777.14830366749 C 960.6374786789 777.25230366749 949.6844786789 777.31930366749 938.7304786789 777.33630366749 Z"/><path fill="#ffffff" transform="matrix(0.5119030826344292 0 0 0.5119030826344292 14.13155313225752 9.123767349352288)" d="M 1031.9784786789 804.06330366749 C 1033.9974786789 795.38430366749 1035.1494786789 786.45430366749 1035.4314786789 777.54630366749 C 1035.4504786789 777.00230366749 1035.4544786789 776.45930366749 1035.4664786789 775.91530366749 C 1030.9164786789 776.04630366749 1026.3664786789 776.17830366749 1021.8174786789 776.28930366749 C 1008.5414786789 776.64030366749 995.2644786789 776.88030366749 981.9884786789 777.04530366749 C 981.6164786789 799.75530366749 978.1734786789 822.50030366749 970.9534786789 844.09830366749 C 973.2334786789 844.89130366749 975.4984786789 845.73030366749 977.7454786789 846.61830366749 C 986.7934786789 850.17430366749 995.5044786789 854.63130366749 1003.6404786789 859.92130366749 C 1003.8694786789 860.07530366749 1004.0934786789 860.23530366749 1004.3214786789 860.39130366749 C 1012.0714786789 850.98830366749 1018.5744786789 840.53730366749 1023.5494786789 829.38530366749 C 1027.1804786789 821.25530366749 1029.9964786789 812.75830366749 1031.9784786789 804.06330366749 Z"/><path fill="#ffffff" transform="matrix(0.5119030826344292 0 0 0.5119030826344292 14.13155313225752 9.123767349352288)" d="M 1100.3754786789 740.38230366749 L 1015.5614786789 689.91130366749 C 1023.2334786789 699.55130366749 1029.6474786789 710.23430366749 1034.5124786789 721.62630366749 C 1042.0744786789 739.23130366749 1045.6904786789 758.53330366749 1045.5984786789 777.68830366749 C 1045.5524786789 787.33230366749 1044.5774786789 796.92530366749 1042.6574786789 806.37930366749 C 1040.7034786789 815.81730366749 1037.7894786789 825.06730366749 1033.9984786789 833.94430366749 C 1026.4264786789 851.70830366749 1015.2904786789 867.95730366749 1001.4564786789 881.50330366749 C 1001.1444786789 881.80830366749 1000.8234786789 882.10430366749 1000.5094786789 882.40630366749 L 1100.3764786789 822.97630366749 C 1138.7034786789 800.17730366749 1138.7034786789 763.18430366749 1100.3754786789 740.38230366749 Z"/><path fill="#ffffff" transform="matrix(0.5119030826344292 0 0 0.5119030826344292 14.13155313225752 9.123767349352288)" d="M 896.1214786789 923.23230366749 C 876.6854786789 922.85430366749 857.3894786789 918.62530366749 839.6314786789 910.80730366749 C 821.8894786789 902.99130366749 805.6634786789 891.70930366749 792.3544786789 877.65130366749 C 779.0254786789 863.61830366749 768.4864786789 846.97530366749 761.5774786789 828.94630366749 C 760.2364786789 825.44630366749 759.0284786789 821.89530366749 757.9554786789 818.30530366749 L 757.9554786789 945.98330366749 C 757.9554786789 990.58630366749 789.0304786789 1008.24930366749 827.3574786789 985.44730366749 L 943.7114786789 916.20730366749 C 928.3634786789 921.12430366749 912.1854786789 923.51730366749 896.1214786789 923.23230366749 Z"/><path fill="#ffffff" transform="matrix(0.5119030826344292 0 0 0.5119030826344292 14.13155313225752 9.123767349352288)" d="M 764.7144786789 716.66030366749 C 772.4614786789 699.21530366749 783.4504786789 683.28630366749 796.9644786789 669.98930366749 C 810.5174786789 656.74930366749 826.5164786789 646.04330366749 843.9854786789 639.04530366749 C 852.7074786789 635.54730366749 861.7644786789 632.93130366749 870.9694786789 631.29830366749 C 880.1874786789 629.70530366749 889.5304786789 629.07630366749 898.8094786789 629.39830366749 C 889.5284786789 629.72630366749 880.3194786789 631.00330366749 871.3704786789 633.20430366749 C 862.4104786789 635.36430366749 853.6984786789 638.42330366749 845.4094786789 642.32530366749 C 828.8204786789 650.11230366749 813.8444786789 661.08330366749 801.4994786789 674.41630366749 C 776.5944786789 700.88930366749 762.2324786789 736.68330366749 762.1474786789 772.49930366749 C 762.0724786789 790.45030366749 765.5044786789 808.25830366749 772.1384786789 824.79130366749 C 778.7844786789 841.31830366749 788.7384786789 856.46530366749 801.1804786789 869.13830366749 C 813.6204786789 881.80430366749 828.4154786789 892.16530366749 844.7004786789 899.17930366749 C 860.9514786789 906.23630366749 878.6344786789 909.99830366749 896.3044786789 910.24430366749 C 914.0714786789 910.60430366749 931.8104786789 907.52630366749 948.3304786789 901.06730366749 C 964.8544786789 894.65330366749 980.0384786789 884.86130366749 992.9004786789 872.62930366749 C 995.6934786789 869.98330366749 998.3664786789 867.21130366749 1000.9264786789 864.33630366749 C 996.7824786789 862.32030366749 992.5404786789 860.51530366749 988.2324786789 858.90530366749 C 983.8774786789 857.24930366749 979.4644786789 855.76030366749 975.0174786789 854.39330366749 C 972.6704786789 853.68030366749 970.3124786789 853.01030366749 967.9464786789 852.37230366749 C 964.3124786789 861.63630366749 959.8694786789 870.59130366749 954.4994786789 878.96330366749 C 951.0904786789 884.12530366749 947.3854786789 889.09630366749 943.1664786789 893.59730366749 C 938.9654786789 898.10330366749 934.3104786789 902.19330366749 929.1754786789 905.47030366749 C 937.9964786789 897.07230366749 944.7404786789 887.05130366749 950.0724786789 876.41230366749 C 954.3294786789 868.10430366749 957.6864786789 859.38330366749 960.4754786789 850.49530366749 C 947.2534786789 847.38130366749 933.7784786789 845.34430366749 920.2324786789 844.16530366749 C 914.2394786789 843.65930366749 908.2274786789 843.34130366749 902.2084786789 843.17530366749 C 901.5464786789 861.80230366749 900.5584786789 880.42730366749 898.8094786789 899.05430366749 C 897.0514786789 880.38830366749 896.0624786789 861.72530366749 895.4054786789 843.06030366749 C 885.0344786789 842.99630366749 874.6494786789 843.41930366749 864.2964786789 844.38030366749 C 854.8944786789 845.23330366749 845.5294786789 846.54630366749 836.2114786789 848.34930366749 C 838.3964786789 855.77730366749 840.9754786789 863.09630366749 844.1224786789 870.19330366749 C 848.5634786789 880.41330366749 854.1314786789 890.18930366749 861.2524786789 899.05430366749 C 852.4854786789 891.75230366749 845.4824786789 882.38330366749 839.6484786789 872.47230366749 C 835.4954786789 865.24130366749 831.9474786789 857.65830366749 828.9634786789 849.85730366749 C 822.2294786789 851.34930366749 815.5204786789 853.09730366749 808.8414786789 855.12730366749 C 814.8544786789 851.68630366749 821.1414786789 848.73430366749 827.6124786789 846.19930366749 C 826.9764786789 844.41530366749 826.3584786789 842.62530366749 825.7794786789 840.82230366749 C 819.0054786789 819.61530366749 815.8484786789 797.37330366749 815.6214786789 775.13530366749 C 801.2654786789 774.55130366749 786.9094786789 773.80130366749 772.5554786789 772.79730366749 C 786.9094786789 771.79430366749 801.2644786789 771.04430366749 815.6204786789 770.45930366749 C 815.8354786789 748.14130366749 819.0484786789 725.71430366749 825.9694786789 704.41830366749 C 826.5224786789 702.70930366749 827.1134786789 701.01130366749 827.7204786789 699.32030366749 C 819.8884786789 696.32230366749 812.3124786789 692.73530366749 805.1504786789 688.43730366749 C 813.1274786789 691.11930366749 821.1704786789 693.35430366749 829.2644786789 695.19630366749 C 832.2714786789 687.47330366749 835.8474786789 679.97330366749 840.0114786789 672.82230366749 C 845.9374786789 662.95830366749 853.0184786789 653.62830366749 861.9044786789 646.45830366749 C 854.7164786789 655.27030366749 849.0794786789 664.99830366749 844.6024786789 675.19630366749 C 842.3104786789 680.26630366749 840.3054786789 685.46030366749 838.5624786789 690.73330366749 C 837.8904786789 692.73330366749 837.2604786789 694.74530366749 836.6514786789 696.76430366749 C 845.6194786789 698.53430366749 854.6424786789 699.83830366749 863.7004786789 700.71830366749 C 873.5654786789 701.66330366749 883.4814786789 702.17530366749 893.3544786789 702.16430366749 C 894.1534786789 702.16430366749 894.9484786789 702.15930366749 895.7444786789 702.15430366749 C 896.4004786789 685.48630366749 897.3164786789 668.81930366749 898.8114786789 652.15330366749 C 900.3014786789 668.79130366749 901.2164786789 685.42830366749 901.8714786789 702.06730366749 C 903.9784786789 702.01630366749 906.0834786789 701.94530366749 908.1944786789 701.83530366749 C 913.1314786789 701.63530366749 918.0594786789 701.28230366749 922.9744786789 700.80830366749 C 935.4914786789 699.60530366749 947.9474786789 697.64230366749 960.1614786789 694.71930366749 C 957.3334786789 685.87330366749 953.9294786789 677.20130366749 949.6284786789 668.94830366749 C 944.5224786789 658.94930366749 938.1194786789 649.53030366749 929.9014786789 641.54830366749 C 928.7074786789 641.25630366749 927.5104786789 640.97630366749 926.3084786789 640.71330366749 C 917.3084786789 638.69830366749 908.0874786789 637.53030366749 898.8124786789 637.19930366749 C 908.0874786789 636.87130366749 917.4284786789 637.38530366749 926.6694786789 638.77730366749 C 928.0644786789 638.99430366749 929.4564786789 639.23830366749 930.8454786789 639.49630366749 L 827.3574786789 577.91430366749 C 789.0294786789 555.10830366749 757.9554786789 572.77630366749 757.9554786789 617.37530366749 L 757.9554786789 735.15430366749 C 759.7934786789 728.84130366749 762.0424786789 722.65630366749 764.7144786789 716.66030366749 Z"/><path fill="#ffffff" transform="matrix(0.5119030826344292 0 0 0.5119030826344292 14.13155313225752 9.123767349352288)" d="M 908.5724786789 712.10630366749 C 906.4664786789 712.15830366749 904.3534786789 712.18130366749 902.2404786789 712.18430366749 C 902.2594786789 712.74930366749 902.2814786789 713.31430366749 902.2994786789 713.87930366749 C 902.9474786789 732.05030366749 903.2234786789 750.22530366749 903.3134786789 768.39930366749 C 915.1194786789 768.29630366749 926.9244786789 768.24430366749 938.7304786789 768.25630366749 C 949.6814786789 768.27430366749 960.6314786789 768.34130366749 971.5814786789 768.44530366749 C 971.2314786789 746.65030366749 968.5464786789 724.86030366749 962.8504786789 703.82030366749 C 950.1544786789 707.51830366749 937.0814786789 709.89630366749 923.9554786789 711.16030366749 C 918.8344786789 711.62330366749 913.7074786789 711.94930366749 908.5724786789 712.10630366749 Z"/><path fill="#ffffff" transform="matrix(0.5119030826344292 0 0 0.5119030826344292 14.13155313225752 9.123767349352288)" d="M 1003.2744786789 686.01030366749 C 997.0434786789 689.97630366749 990.4784786789 693.42430366749 983.7034786789 696.35330366749 C 979.4414786789 698.19130366749 975.1084786789 699.84230366749 970.7244786789 701.33430366749 C 978.0424786789 722.96930366749 981.5474786789 745.77530366749 981.9764786789 768.55030366749 C 995.2564786789 768.71630366749 1008.5374786789 768.95630366749 1021.8184786789 769.30730366749 C 1026.3684786789 769.41830366749 1030.9154786789 769.55130366749 1035.4634786789 769.68130366749 C 1035.0914786789 754.37430366749 1032.1094786789 739.16830366749 1026.6024786789 724.83930366749 C 1021.2014786789 710.71130366749 1013.2454786789 697.52730366749 1003.2744786789 686.01030366749 Z"/><path id="text" fill="#ffffff" transform="matrix(0.856533145385489 0 0 0.856533145385489 -3.042405732409257 363.5670378677974)" d="M 182.70857142857 324.85309348088 C 180.02057142857 321.94109348088 178.67657142857 317.76509348088 178.67657142857 312.32509348088 L 178.67657142857 261.06109348088 L 189.23657142857 261.06109348088 L 189.23657142857 313.09309348088 C 189.23657142857 315.39709348088 189.70057142857 317.06109348088 190.62857142857 318.08509348088 C 191.55657142857 319.10909348088 192.88457142857 319.62109348088 194.61257142857 319.62109348088 C 196.34057142857 319.62109348088 197.66857142857 319.10909348088 198.59657142857 318.08509348088 C 199.52457142857 317.06109348088 199.98857142857 315.39709348088 199.98857142857 313.09309348088 L 199.98857142857 261.06109348088 L 210.16457142857 261.06109348088 L 210.16457142857 312.32509348088 C 210.16457142857 317.76509348088 208.82057142857 321.94109348088 206.13257142857 324.85309348088 C 203.44457142857 327.76509348088 199.54057142857 329.22109348088 194.42057142857 329.22109348088 C 189.30057142857 329.22109348088 185.39657142857 327.76509348088 182.70857142857 324.85309348088 Z M 239.63657142857 261.06109348088 L 252.88457142857 261.06109348088 L 263.15657142857 301.28509348088 L 263.34857142857 301.28509348088 L 263.34857142857 261.06109348088 L 272.75657142857 261.06109348088 L 272.75657142857 328.26109348088 L 261.90857142857 328.26109348088 L 249.23657142857 279.20509348088 L 249.04457142857 279.20509348088 L 249.04457142857 328.26109348088 L 239.63657142857 328.26109348088 L 239.63657142857 261.06109348088 Z M 302.61257142857 261.06109348088 L 313.17257142857 261.06109348088 L 313.17257142857 328.26109348088 L 302.61257142857 328.26109348088 L 302.61257142857 261.06109348088 Z M 340.24457142857 261.06109348088 L 350.90057142857 261.06109348088 L 357.81257142857 313.18909348088 L 358.00457142857 313.18909348088 L 364.91657142857 261.06109348088 L 374.61257142857 261.06109348088 L 364.43657142857 328.26109348088 L 350.42057142857 328.26109348088 L 340.24457142857 261.06109348088 Z M 401.68457142857 261.06109348088 L 430.48457142857 261.06109348088 L 430.48457142857 270.66109348088 L 412.24457142857 270.66109348088 L 412.24457142857 288.42109348088 L 426.74057142857 288.42109348088 L 426.74057142857 298.02109348088 L 412.24457142857 298.02109348088 L 412.24457142857 318.66109348088 L 430.48457142857 318.66109348088 L 430.48457142857 328.26109348088 L 401.68457142857 328.26109348088 L 401.68457142857 261.06109348088 Z M 458.51657142857 261.06109348088 L 474.16457142857 261.06109348088 C 479.60457142857 261.06109348088 483.57257142857 262.32509348088 486.06857142857 264.85309348088 C 488.56457142857 267.38109348088 489.81257142857 271.26909348088 489.81257142857 276.51709348088 L 489.81257142857 280.64509348088 C 489.81257142857 287.62109348088 487.50857142857 292.03709348088 482.90057142857 293.89309348088 L 482.90057142857 294.08509348088 C 485.46057142857 294.85309348088 487.26857142857 296.42109348088 488.32457142857 298.78909348088 C 489.38057142857 301.15709348088 489.90857142857 304.32509348088 489.90857142857 308.29309348088 L 489.90857142857 320.10109348088 C 489.90857142857 322.02109348088 489.97257142857 323.57309348088 490.10057142857 324.75709348088 C 490.22857142857 325.94109348088 490.54857142857 327.10909348088 491.06057142857 328.26109348088 L 480.30857142857 328.26109348088 C 479.92457142857 327.17309348088 479.66857142857 326.14909348088 479.54057142857 325.18909348088 C 479.41257142857 324.22909348088 479.34857142857 322.50109348088 479.34857142857 320.00509348088 L 479.34857142857 307.71709348088 C 479.34857142857 304.64509348088 478.85257142857 302.50109348088 477.86057142857 301.28509348088 C 476.86857142857 300.06909348088 475.15657142857 299.46109348088 472.72457142857 299.46109348088 L 469.07657142857 299.46109348088 L 469.07657142857 328.26109348088 L 458.51657142857 328.26109348088 L 458.51657142857 261.06109348088 Z M 472.91657142857 289.86109348088 C 475.02857142857 289.86109348088 476.61257142857 289.31709348088 477.66857142857 288.22909348088 C 478.72457142857 287.14109348088 479.25257142857 285.31709348088 479.25257142857 282.75709348088 L 479.25257142857 277.57309348088 C 479.25257142857 275.14109348088 478.82057142857 273.38109348088 477.95657142857 272.29309348088 C 477.09257142857 271.20509348088 475.73257142857 270.66109348088 473.87657142857 270.66109348088 L 469.07657142857 270.66109348088 L 469.07657142857 289.86109348088 L 472.91657142857 289.86109348088 Z M 521.30057142857 324.85309348088 C 518.67657142857 321.94109348088 517.36457142857 317.76509348088 517.36457142857 312.32509348088 L 517.36457142857 308.48509348088 L 527.34857142857 308.48509348088 L 527.34857142857 313.09309348088 C 527.34857142857 317.44509348088 529.17257142857 319.62109348088 532.82057142857 319.62109348088 C 534.61257142857 319.62109348088 535.97257142857 319.09309348088 536.90057142857 318.03709348088 C 537.82857142857 316.98109348088 538.29257142857 315.26909348088 538.29257142857 312.90109348088 C 538.29257142857 310.08509348088 537.65257142857 307.60509348088 536.37257142857 305.46109348088 C 535.09257142857 303.31709348088 532.72457142857 300.74109348088 529.26857142857 297.73309348088 C 524.91657142857 293.89309348088 521.87657142857 290.42109348088 520.14857142857 287.31709348088 C 518.42057142857 284.21309348088 517.55657142857 280.70909348088 517.55657142857 276.80509348088 C 517.55657142857 271.49309348088 518.90057142857 267.38109348088 521.58857142857 264.46909348088 C 524.27657142857 261.55709348088 528.18057142857 260.10109348088 533.30057142857 260.10109348088 C 538.35657142857 260.10109348088 542.18057142857 261.55709348088 544.77257142857 264.46909348088 C 547.36457142857 267.38109348088 548.66057142857 271.55709348088 548.66057142857 276.99709348088 L 548.66057142857 279.78109348088 L 538.67657142857 279.78109348088 L 538.67657142857 276.32509348088 C 538.67657142857 274.02109348088 538.22857142857 272.34109348088 537.33257142857 271.28509348088 C 536.43657142857 270.22909348088 535.12457142857 269.70109348088 533.39657142857 269.70109348088 C 529.87657142857 269.70109348088 528.11657142857 271.84509348088 528.11657142857 276.13309348088 C 528.11657142857 278.56509348088 528.77257142857 280.83709348088 530.08457142857 282.94909348088 C 531.39657142857 285.06109348088 533.78057142857 287.62109348088 537.23657142857 290.62909348088 C 541.65257142857 294.46909348088 544.69257142857 297.95709348088 546.35657142857 301.09309348088 C 548.02057142857 304.22909348088 548.85257142857 307.90909348088 548.85257142857 312.13309348088 C 548.85257142857 317.63709348088 547.49257142857 321.86109348088 544.77257142857 324.80509348088 C 542.05257142857 327.74909348088 538.10057142857 329.22109348088 532.91657142857 329.22109348088 C 527.79657142857 329.22109348088 523.92457142857 327.76509348088 521.30057142857 324.85309348088 Z M 576.88457142857 261.06109348088 L 605.68457142857 261.06109348088 L 605.68457142857 270.66109348088 L 587.44457142857 270.66109348088 L 587.44457142857 288.42109348088 L 601.94057142857 288.42109348088 L 601.94057142857 298.02109348088 L 587.44457142857 298.02109348088 L 587.44457142857 318.66109348088 L 605.68457142857 318.66109348088 L 605.68457142857 328.26109348088 L 576.88457142857 328.26109348088 L 576.88457142857 261.06109348088 Z M 671.06057142857 261.06109348088 L 686.61257142857 261.06109348088 C 691.86057142857 261.06109348088 695.79657142857 262.46909348088 698.42057142857 265.28509348088 C 701.04457142857 268.10109348088 702.35657142857 272.22909348088 702.35657142857 277.66909348088 L 702.35657142857 284.29309348088 C 702.35657142857 289.73309348088 701.04457142857 293.86109348088 698.42057142857 296.67709348088 C 695.79657142857 299.49309348088 691.86057142857 300.90109348088 686.61257142857 300.90109348088 L 681.62057142857 300.90109348088 L 681.62057142857 328.26109348088 L 671.06057142857 328.26109348088 L 671.06057142857 261.06109348088 Z M 686.61257142857 291.30109348088 C 688.34057142857 291.30109348088 689.63657142857 290.82109348088 690.50057142857 289.86109348088 C 691.36457142857 288.90109348088 691.79657142857 287.26909348088 691.79657142857 284.96509348088 L 691.79657142857 276.99709348088 C 691.79657142857 274.69309348088 691.36457142857 273.06109348088 690.50057142857 272.10109348088 C 689.63657142857 271.14109348088 688.34057142857 270.66109348088 686.61257142857 270.66109348088 L 681.62057142857 270.66109348088 L 681.62057142857 291.30109348088 L 686.61257142857 291.30109348088 Z M 733.46057142857 324.80509348088 C 730.70857142857 321.86109348088 729.33257142857 317.70109348088 729.33257142857 312.32509348088 L 729.33257142857 276.99709348088 C 729.33257142857 271.62109348088 730.70857142857 267.46109348088 733.46057142857 264.51709348088 C 736.21257142857 261.57309348088 740.18057142857 260.10109348088 745.36457142857 260.10109348088 C 750.54857142857 260.10109348088 754.51657142857 261.57309348088 757.26857142857 264.51709348088 C 760.02057142857 267.46109348088 761.39657142857 271.62109348088 761.39657142857 276.99709348088 L 761.39657142857 312.32509348088 C 761.39657142857 317.70109348088 760.02057142857 321.86109348088 757.26857142857 324.80509348088 C 754.51657142857 327.74909348088 750.54857142857 329.22109348088 745.36457142857 329.22109348088 C 740.18057142857 329.22109348088 736.21257142857 327.74909348088 733.46057142857 324.80509348088 Z M 750.83657142857 312.99709348088 L 750.83657142857 276.32509348088 C 750.83657142857 271.90909348088 749.01257142857 269.70109348088 745.36457142857 269.70109348088 C 741.71657142857 269.70109348088 739.89257142857 271.90909348088 739.89257142857 276.32509348088 L 739.89257142857 312.99709348088 C 739.89257142857 317.41309348088 741.71657142857 319.62109348088 745.36457142857 319.62109348088 C 749.01257142857 319.62109348088 750.83657142857 317.41309348088 750.83657142857 312.99709348088 Z M 790.48457142857 261.06109348088 L 806.13257142857 261.06109348088 C 811.57257142857 261.06109348088 815.54057142857 262.32509348088 818.03657142857 264.85309348088 C 820.53257142857 267.38109348088 821.78057142857 271.26909348088 821.78057142857 276.51709348088 L 821.78057142857 280.64509348088 C 821.78057142857 287.62109348088 819.47657142857 292.03709348088 814.86857142857 293.89309348088 L 814.86857142857 294.08509348088 C 817.42857142857 294.85309348088 819.23657142857 296.42109348088 820.29257142857 298.78909348088 C 821.34857142857 301.15709348088 821.87657142857 304.32509348088 821.87657142857 308.29309348088 L 821.87657142857 320.10109348088 C 821.87657142857 322.02109348088 821.94057142857 323.57309348088 822.06857142857 324.75709348088 C 822.19657142857 325.94109348088 822.51657142857 327.10909348088 823.02857142857 328.26109348088 L 812.27657142857 328.26109348088 C 811.89257142857 327.17309348088 811.63657142857 326.14909348088 811.50857142857 325.18909348088 C 811.38057142857 324.22909348088 811.31657142857 322.50109348088 811.31657142857 320.00509348088 L 811.31657142857 307.71709348088 C 811.31657142857 304.64509348088 810.82057142857 302.50109348088 809.82857142857 301.28509348088 C 808.83657142857 300.06909348088 807.12457142857 299.46109348088 804.69257142857 299.46109348088 L 801.04457142857 299.46109348088 L 801.04457142857 328.26109348088 L 790.48457142857 328.26109348088 L 790.48457142857 261.06109348088 Z M 804.88457142857 289.86109348088 C 806.99657142857 289.86109348088 808.58057142857 289.31709348088 809.63657142857 288.22909348088 C 810.69257142857 287.14109348088 811.22057142857 285.31709348088 811.22057142857 282.75709348088 L 811.22057142857 277.57309348088 C 811.22057142857 275.14109348088 810.78857142857 273.38109348088 809.92457142857 272.29309348088 C 809.06057142857 271.20509348088 807.70057142857 270.66109348088 805.84457142857 270.66109348088 L 801.04457142857 270.66109348088 L 801.04457142857 289.86109348088 L 804.88457142857 289.86109348088 Z M 851.15657142857 261.06109348088 L 861.71657142857 261.06109348088 L 861.71657142857 328.26109348088 L 851.15657142857 328.26109348088 L 851.15657142857 261.06109348088 Z M 895.22057142857 324.85309348088 C 892.53257142857 321.94109348088 891.18857142857 317.76509348088 891.18857142857 312.32509348088 L 891.18857142857 261.06109348088 L 901.74857142857 261.06109348088 L 901.74857142857 313.09309348088 C 901.74857142857 315.39709348088 902.21257142857 317.06109348088 903.14057142857 318.08509348088 C 904.06857142857 319.10909348088 905.39657142857 319.62109348088 907.12457142857 319.62109348088 C 908.85257142857 319.62109348088 910.18057142857 319.10909348088 911.10857142857 318.08509348088 C 912.03657142857 317.06109348088 912.50057142857 315.39709348088 912.50057142857 313.09309348088 L 912.50057142857 261.06109348088 L 922.67657142857 261.06109348088 L 922.67657142857 312.32509348088 C 922.67657142857 317.76509348088 921.33257142857 321.94109348088 918.64457142857 324.85309348088 C 915.95657142857 327.76509348088 912.05257142857 329.22109348088 906.93257142857 329.22109348088 C 901.81257142857 329.22109348088 897.90857142857 327.76509348088 895.22057142857 324.85309348088 Z M 952.14857142857 261.06109348088 L 967.22057142857 261.06109348088 L 973.94057142857 309.15709348088 L 974.13257142857 309.15709348088 L 980.85257142857 261.06109348088 L 995.92457142857 261.06109348088 L 995.92457142857 328.26109348088 L 985.94057142857 328.26109348088 L 985.94057142857 277.38109348088 L 985.74857142857 277.38109348088 L 978.06857142857 328.26109348088 L 969.23657142857 328.26109348088 L 961.55657142857 277.38109348088 L 961.36457142857 277.38109348088 L 961.36457142857 328.26109348088 L 952.14857142857 328.26109348088 L 952.14857142857 261.06109348088 Z"/><path id="text" fill="#ffffff" transform="matrix(0.4282665726927445 0 0 0.4282665726927445 -4.111359097850347 418.7688860216014)" d="M 587.70514285714 656.52218696177 C 586.61714285714 656.52218696177 585.72114285714 656.17018696177 585.01714285714 655.46618696177 C 584.31314285714 654.76218696177 583.96114285714 653.86618696177 583.96114285714 652.77818696177 L 583.96114285714 585.29018696177 C 583.96114285714 584.20218696177 584.31314285714 583.30618696177 585.01714285714 582.60218696177 C 585.72114285714 581.89818696177 586.61714285714 581.54618696177 587.70514285714 581.54618696177 C 588.79314285714 581.54618696177 589.68914285714 581.89818696177 590.39314285714 582.60218696177 C 591.09714285714 583.30618696177 591.44914285714 584.20218696177 591.44914285714 585.29018696177 L 591.44914285714 652.77818696177 C 591.44914285714 653.86618696177 591.09714285714 654.76218696177 590.39314285714 655.46618696177 C 589.68914285714 656.17018696177 588.79314285714 656.52218696177 587.70514285714 656.52218696177 Z M 655.86514285714 657.00218696177 C 650.80914285714 657.00218696177 646.26514285714 655.83418696177 642.23314285714 653.49818696177 C 638.20114285714 651.16218696177 635.01714285714 647.97818696177 632.68114285714 643.94618696177 C 630.34514285714 639.91418696177 629.17714285714 635.33818696177 629.17714285714 630.21818696177 C 629.17714285714 625.16218696177 630.31314285714 620.61818696177 632.58514285714 616.58618696177 C 634.85714285714 612.55418696177 637.94514285714 609.37018696177 641.84914285714 607.03418696177 C 645.75314285714 604.69818696177 650.16914285714 603.53018696177 655.09714285714 603.53018696177 C 659.38514285714 603.53018696177 663.25714285714 604.44218696177 666.71314285714 606.26618696177 C 670.16914285714 608.09018696177 672.95314285714 610.50618696177 675.06514285714 613.51418696177 L 675.06514285714 585.29018696177 C 675.06514285714 584.13818696177 675.41714285714 583.22618696177 676.12114285714 582.55418696177 C 676.82514285714 581.88218696177 677.72114285714 581.54618696177 678.80914285714 581.54618696177 C 679.89714285714 581.54618696177 680.79314285714 581.88218696177 681.49714285714 582.55418696177 C 682.20114285714 583.22618696177 682.55314285714 584.13818696177 682.55314285714 585.29018696177 L 682.55314285714 630.60218696177 C 682.42514285714 635.59418696177 681.19314285714 640.09018696177 678.85714285714 644.09018696177 C 676.52114285714 648.09018696177 673.35314285714 651.24218696177 669.35314285714 653.54618696177 C 665.35314285714 655.85018696177 660.85714285714 657.00218696177 655.86514285714 657.00218696177 Z M 655.86514285714 650.28218696177 C 659.57714285714 650.28218696177 662.88914285714 649.40218696177 665.80114285714 647.64218696177 C 668.71314285714 645.88218696177 671.01714285714 643.49818696177 672.71314285714 640.49018696177 C 674.40914285714 637.48218696177 675.25714285714 634.05818696177 675.25714285714 630.21818696177 C 675.25714285714 626.44218696177 674.40914285714 623.03418696177 672.71314285714 619.99418696177 C 671.01714285714 616.95418696177 668.71314285714 614.57018696177 665.80114285714 612.84218696177 C 662.88914285714 611.11418696177 659.57714285714 610.25018696177 655.86514285714 610.25018696177 C 652.21714285714 610.25018696177 648.92114285714 611.11418696177 645.97714285714 612.84218696177 C 643.03314285714 614.57018696177 640.69714285714 616.95418696177 638.96914285714 619.99418696177 C 637.24114285714 623.03418696177 636.37714285714 626.44218696177 636.37714285714 630.21818696177 C 636.37714285714 634.05818696177 637.24114285714 637.48218696177 638.96914285714 640.49018696177 C 640.69714285714 643.49818696177 643.03314285714 645.88218696177 645.97714285714 647.64218696177 C 648.92114285714 649.40218696177 652.21714285714 650.28218696177 655.86514285714 650.28218696177 Z M 745.91314285714 657.00218696177 C 740.72914285714 657.00218696177 736.13714285714 655.86618696177 732.13714285714 653.59418696177 C 728.13714285714 651.32218696177 725.00114285714 648.17018696177 722.72914285714 644.13818696177 C 720.45714285714 640.10618696177 719.32114285714 635.49818696177 719.32114285714 630.31418696177 C 719.32114285714 625.06618696177 720.39314285714 620.44218696177 722.53714285714 616.44218696177 C 724.68114285714 612.44218696177 727.64114285714 609.29018696177 731.41714285714 606.98618696177 C 735.19314285714 604.68218696177 739.54514285714 603.53018696177 744.47314285714 603.53018696177 C 749.33714285714 603.53018696177 753.57714285714 604.63418696177 757.19314285714 606.84218696177 C 760.80914285714 609.05018696177 763.60914285714 612.10618696177 765.59314285714 616.01018696177 C 767.57714285714 619.91418696177 768.56914285714 624.36218696177 768.56914285714 629.35418696177 C 768.56914285714 630.37818696177 768.24914285714 631.19418696177 767.60914285714 631.80218696177 C 766.96914285714 632.41018696177 766.13714285714 632.71418696177 765.11314285714 632.71418696177 L 724.31314285714 632.71418696177 L 724.31314285714 626.57018696177 L 765.88114285714 626.57018696177 L 761.75314285714 629.54618696177 C 761.81714285714 625.83418696177 761.14514285714 622.50618696177 759.73714285714 619.56218696177 C 758.32914285714 616.61818696177 756.32914285714 614.31418696177 753.73714285714 612.65018696177 C 751.14514285714 610.98618696177 748.05714285714 610.15418696177 744.47314285714 610.15418696177 C 740.82514285714 610.15418696177 737.62514285714 611.01818696177 734.87314285714 612.74618696177 C 732.12114285714 614.47418696177 729.99314285714 616.85818696177 728.48914285714 619.89818696177 C 726.98514285714 622.93818696177 726.23314285714 626.41018696177 726.23314285714 630.31418696177 C 726.23314285714 634.21818696177 727.08114285714 637.67418696177 728.77714285714 640.68218696177 C 730.47314285714 643.69018696177 732.79314285714 646.05818696177 735.73714285714 647.78618696177 C 738.68114285714 649.51418696177 742.07314285714 650.37818696177 745.91314285714 650.37818696177 C 748.21714285714 650.37818696177 750.53714285714 649.97818696177 752.87314285714 649.17818696177 C 755.20914285714 648.37818696177 757.08114285714 647.37018696177 758.48914285714 646.15418696177 C 759.19314285714 645.57818696177 759.99314285714 645.27418696177 760.88914285714 645.24218696177 C 761.78514285714 645.21018696177 762.55314285714 645.45018696177 763.19314285714 645.96218696177 C 764.02514285714 646.73018696177 764.45714285714 647.56218696177 764.48914285714 648.45818696177 C 764.52114285714 649.35418696177 764.15314285714 650.12218696177 763.38514285714 650.76218696177 C 761.27314285714 652.55418696177 758.58514285714 654.04218696177 755.32114285714 655.22618696177 C 752.05714285714 656.41018696177 748.92114285714 657.00218696177 745.91314285714 657.00218696177 Z M 824.53714285714 657.00218696177 C 819.60914285714 657.00218696177 815.19314285714 655.83418696177 811.28914285714 653.49818696177 C 807.38514285714 651.16218696177 804.29714285714 647.97818696177 802.02514285714 643.94618696177 C 799.75314285714 639.91418696177 798.61714285714 635.37018696177 798.61714285714 630.31418696177 C 798.61714285714 625.19418696177 799.78514285714 620.61818696177 802.12114285714 616.58618696177 C 804.45714285714 612.55418696177 807.64114285714 609.37018696177 811.67314285714 607.03418696177 C 815.70514285714 604.69818696177 820.24914285714 603.53018696177 825.30514285714 603.53018696177 C 830.36114285714 603.53018696177 834.88914285714 604.69818696177 838.88914285714 607.03418696177 C 842.88914285714 609.37018696177 846.05714285714 612.55418696177 848.39314285714 616.58618696177 C 850.72914285714 620.61818696177 851.92914285714 625.19418696177 851.99314285714 630.31418696177 L 849.01714285714 632.61818696177 C 849.01714285714 637.22618696177 847.94514285714 641.37018696177 845.80114285714 645.05018696177 C 843.65714285714 648.73018696177 840.74514285714 651.64218696177 837.06514285714 653.78618696177 C 833.38514285714 655.93018696177 829.20914285714 657.00218696177 824.53714285714 657.00218696177 Z M 825.30514285714 650.28218696177 C 829.01714285714 650.28218696177 832.32914285714 649.41818696177 835.24114285714 647.69018696177 C 838.15314285714 645.96218696177 840.45714285714 643.57818696177 842.15314285714 640.53818696177 C 843.84914285714 637.49818696177 844.69714285714 634.09018696177 844.69714285714 630.31418696177 C 844.69714285714 626.47418696177 843.84914285714 623.05018696177 842.15314285714 620.04218696177 C 840.45714285714 617.03418696177 838.15314285714 614.65018696177 835.24114285714 612.89018696177 C 832.32914285714 611.13018696177 829.01714285714 610.25018696177 825.30514285714 610.25018696177 C 821.65714285714 610.25018696177 818.36114285714 611.13018696177 815.41714285714 612.89018696177 C 812.47314285714 614.65018696177 810.13714285714 617.03418696177 808.40914285714 620.04218696177 C 806.68114285714 623.05018696177 805.81714285714 626.47418696177 805.81714285714 630.31418696177 C 805.81714285714 634.09018696177 806.68114285714 637.49818696177 808.40914285714 640.53818696177 C 810.13714285714 643.57818696177 812.47314285714 645.96218696177 815.41714285714 647.69018696177 C 818.36114285714 649.41818696177 821.65714285714 650.28218696177 825.30514285714 650.28218696177 Z M 848.24914285714 656.52218696177 C 847.16114285714 656.52218696177 846.26514285714 656.18618696177 845.56114285714 655.51418696177 C 844.85714285714 654.84218696177 844.50514285714 653.96218696177 844.50514285714 652.87418696177 L 844.50514285714 636.45818696177 L 846.32914285714 628.87418696177 L 851.99314285714 630.31418696177 L 851.99314285714 652.87418696177 C 851.99314285714 653.96218696177 851.64114285714 654.84218696177 850.93714285714 655.51418696177 C 850.23314285714 656.18618696177 849.33714285714 656.52218696177 848.24914285714 656.52218696177 Z M 907.00114285714 657.00218696177 C 903.22514285714 657.00218696177 899.48114285714 656.36218696177 895.76914285714 655.08218696177 C 892.05714285714 653.80218696177 889.04914285714 651.88218696177 886.74514285714 649.32218696177 C 886.04114285714 648.55418696177 885.75314285714 647.69018696177 885.88114285714 646.73018696177 C 886.00914285714 645.77018696177 886.48914285714 644.93818696177 887.32114285714 644.23418696177 C 888.21714285714 643.59418696177 889.14514285714 643.33818696177 890.10514285714 643.46618696177 C 891.06514285714 643.59418696177 891.86514285714 644.01018696177 892.50514285714 644.71418696177 C 894.04114285714 646.50618696177 896.07314285714 647.88218696177 898.60114285714 648.84218696177 C 901.12914285714 649.80218696177 903.92914285714 650.28218696177 907.00114285714 650.28218696177 C 911.73714285714 650.28218696177 915.16114285714 649.46618696177 917.27314285714 647.83418696177 C 919.38514285714 646.20218696177 920.47314285714 644.23418696177 920.53714285714 641.93018696177 C 920.53714285714 639.62618696177 919.44914285714 637.72218696177 917.27314285714 636.21818696177 C 915.09714285714 634.71418696177 911.51314285714 633.54618696177 906.52114285714 632.71418696177 C 900.05714285714 631.69018696177 895.32114285714 629.89818696177 892.31314285714 627.33818696177 C 889.30514285714 624.77818696177 887.80114285714 621.73818696177 887.80114285714 618.21818696177 C 887.80114285714 614.95418696177 888.66514285714 612.23418696177 890.39314285714 610.05818696177 C 892.12114285714 607.88218696177 894.42514285714 606.25018696177 897.30514285714 605.16218696177 C 900.18514285714 604.07418696177 903.35314285714 603.53018696177 906.80914285714 603.53018696177 C 911.09714285714 603.53018696177 914.79314285714 604.26618696177 917.89714285714 605.73818696177 C 921.00114285714 607.21018696177 923.51314285714 609.19418696177 925.43314285714 611.69018696177 C 926.07314285714 612.52218696177 926.32914285714 613.38618696177 926.20114285714 614.28218696177 C 926.07314285714 615.17818696177 925.56114285714 615.91418696177 924.66514285714 616.49018696177 C 923.89714285714 616.93818696177 923.01714285714 617.08218696177 922.02514285714 616.92218696177 C 921.03314285714 616.76218696177 920.18514285714 616.29818696177 919.48114285714 615.53018696177 C 917.88114285714 613.67418696177 916.02514285714 612.31418696177 913.91314285714 611.45018696177 C 911.80114285714 610.58618696177 909.36914285714 610.15418696177 906.61714285714 610.15418696177 C 903.09714285714 610.15418696177 900.28114285714 610.87418696177 898.16914285714 612.31418696177 C 896.05714285714 613.75418696177 895.00114285714 615.56218696177 895.00114285714 617.73818696177 C 895.00114285714 619.21018696177 895.40114285714 620.49018696177 896.20114285714 621.57818696177 C 897.00114285714 622.66618696177 898.37714285714 623.62618696177 900.32914285714 624.45818696177 C 902.28114285714 625.29018696177 905.01714285714 625.99418696177 908.53714285714 626.57018696177 C 913.33714285714 627.33818696177 917.12914285714 628.47418696177 919.91314285714 629.97818696177 C 922.69714285714 631.48218696177 924.68114285714 633.24218696177 925.86514285714 635.25818696177 C 927.04914285714 637.27418696177 927.64114285714 639.46618696177 927.64114285714 641.83418696177 C 927.64114285714 644.84218696177 926.76114285714 647.48218696177 925.00114285714 649.75418696177 C 923.24114285714 652.02618696177 920.80914285714 653.80218696177 917.70514285714 655.08218696177 C 914.60114285714 656.36218696177 911.03314285714 657.00218696177 907.00114285714 657.00218696177 Z M 1017.78514285714 656.52218696177 C 1016.69714285714 656.52218696177 1015.80114285714 656.17018696177 1015.09714285714 655.46618696177 C 1014.39314285714 654.76218696177 1014.04114285714 653.86618696177 1014.04114285714 652.77818696177 L 1014.04114285714 585.29018696177 C 1014.04114285714 584.20218696177 1014.39314285714 583.30618696177 1015.09714285714 582.60218696177 C 1015.80114285714 581.89818696177 1016.69714285714 581.54618696177 1017.78514285714 581.54618696177 C 1018.93714285714 581.54618696177 1019.89714285714 581.99418696177 1020.66514285714 582.89018696177 L 1066.55314285714 643.17818696177 L 1066.55314285714 585.29018696177 C 1066.55314285714 584.20218696177 1066.90514285714 583.30618696177 1067.60914285714 582.60218696177 C 1068.31314285714 581.89818696177 1069.20914285714 581.54618696177 1070.29714285714 581.54618696177 C 1071.32114285714 581.54618696177 1072.20114285714 581.89818696177 1072.93714285714 582.60218696177 C 1073.67314285714 583.30618696177 1074.04114285714 584.20218696177 1074.04114285714 585.29018696177 L 1074.04114285714 652.77818696177 C 1074.04114285714 653.86618696177 1073.67314285714 654.76218696177 1072.93714285714 655.46618696177 C 1072.20114285714 656.17018696177 1071.32114285714 656.52218696177 1070.29714285714 656.52218696177 C 1069.78514285714 656.52218696177 1069.27314285714 656.42618696177 1068.76114285714 656.23418696177 C 1068.24914285714 656.04218696177 1067.83314285714 655.72218696177 1067.51314285714 655.27418696177 L 1021.52914285714 594.98618696177 L 1021.52914285714 652.77818696177 C 1021.52914285714 653.86618696177 1021.16114285714 654.76218696177 1020.42514285714 655.46618696177 C 1019.68914285714 656.17018696177 1018.80914285714 656.52218696177 1017.78514285714 656.52218696177 Z M 1138.36114285714 657.00218696177 C 1133.17714285714 657.00218696177 1128.58514285714 655.86618696177 1124.58514285714 653.59418696177 C 1120.58514285714 651.32218696177 1117.44914285714 648.17018696177 1115.17714285714 644.13818696177 C 1112.90514285714 640.10618696177 1111.76914285714 635.49818696177 1111.76914285714 630.31418696177 C 1111.76914285714 625.06618696177 1112.84114285714 620.44218696177 1114.98514285714 616.44218696177 C 1117.12914285714 612.44218696177 1120.08914285714 609.29018696177 1123.86514285714 606.98618696177 C 1127.64114285714 604.68218696177 1131.99314285714 603.53018696177 1136.92114285714 603.53018696177 C 1141.78514285714 603.53018696177 1146.02514285714 604.63418696177 1149.64114285714 606.84218696177 C 1153.25714285714 609.05018696177 1156.05714285714 612.10618696177 1158.04114285714 616.01018696177 C 1160.02514285714 619.91418696177 1161.01714285714 624.36218696177 1161.01714285714 629.35418696177 C 1161.01714285714 630.37818696177 1160.69714285714 631.19418696177 1160.05714285714 631.80218696177 C 1159.41714285714 632.41018696177 1158.58514285714 632.71418696177 1157.56114285714 632.71418696177 L 1116.76114285714 632.71418696177 L 1116.76114285714 626.57018696177 L 1158.32914285714 626.57018696177 L 1154.20114285714 629.54618696177 C 1154.26514285714 625.83418696177 1153.59314285714 622.50618696177 1152.18514285714 619.56218696177 C 1150.77714285714 616.61818696177 1148.77714285714 614.31418696177 1146.18514285714 612.65018696177 C 1143.59314285714 610.98618696177 1140.50514285714 610.15418696177 1136.92114285714 610.15418696177 C 1133.27314285714 610.15418696177 1130.07314285714 611.01818696177 1127.32114285714 612.74618696177 C 1124.56914285714 614.47418696177 1122.44114285714 616.85818696177 1120.93714285714 619.89818696177 C 1119.43314285714 622.93818696177 1118.68114285714 626.41018696177 1118.68114285714 630.31418696177 C 1118.68114285714 634.21818696177 1119.52914285714 637.67418696177 1121.22514285714 640.68218696177 C 1122.92114285714 643.69018696177 1125.24114285714 646.05818696177 1128.18514285714 647.78618696177 C 1131.12914285714 649.51418696177 1134.52114285714 650.37818696177 1138.36114285714 650.37818696177 C 1140.66514285714 650.37818696177 1142.98514285714 649.97818696177 1145.32114285714 649.17818696177 C 1147.65714285714 648.37818696177 1149.52914285714 647.37018696177 1150.93714285714 646.15418696177 C 1151.64114285714 645.57818696177 1152.44114285714 645.27418696177 1153.33714285714 645.24218696177 C 1154.23314285714 645.21018696177 1155.00114285714 645.45018696177 1155.64114285714 645.96218696177 C 1156.47314285714 646.73018696177 1156.90514285714 647.56218696177 1156.93714285714 648.45818696177 C 1156.96914285714 649.35418696177 1156.60114285714 650.12218696177 1155.83314285714 650.76218696177 C 1153.72114285714 652.55418696177 1151.03314285714 654.04218696177 1147.76914285714 655.22618696177 C 1144.50514285714 656.41018696177 1141.36914285714 657.00218696177 1138.36114285714 657.00218696177 Z M 1211.80114285714 656.52218696177 C 1210.26514285714 656.52218696177 1209.11314285714 655.69018696177 1208.34514285714 654.02618696177 L 1187.03314285714 608.81018696177 C 1186.64914285714 607.97818696177 1186.61714285714 607.14618696177 1186.93714285714 606.31418696177 C 1187.25714285714 605.48218696177 1187.89714285714 604.84218696177 1188.85714285714 604.39418696177 C 1189.75314285714 603.94618696177 1190.61714285714 603.88218696177 1191.44914285714 604.20218696177 C 1192.28114285714 604.52218696177 1192.92114285714 605.09818696177 1193.36914285714 605.93018696177 L 1213.81714285714 650.18618696177 L 1209.88114285714 650.18618696177 L 1230.04114285714 605.93018696177 C 1230.42514285714 605.03418696177 1231.08114285714 604.44218696177 1232.00914285714 604.15418696177 C 1232.93714285714 603.86618696177 1233.84914285714 603.91418696177 1234.74514285714 604.29818696177 C 1235.64114285714 604.74618696177 1236.24914285714 605.40218696177 1236.56914285714 606.26618696177 C 1236.88914285714 607.13018696177 1236.85714285714 607.94618696177 1236.47314285714 608.71418696177 L 1215.44914285714 654.02618696177 C 1214.68114285714 655.69018696177 1213.46514285714 656.52218696177 1211.80114285714 656.52218696177 Z M 1291.09714285714 657.00218696177 C 1285.91314285714 657.00218696177 1281.32114285714 655.86618696177 1277.32114285714 653.59418696177 C 1273.32114285714 651.32218696177 1270.18514285714 648.17018696177 1267.91314285714 644.13818696177 C 1265.64114285714 640.10618696177 1264.50514285714 635.49818696177 1264.50514285714 630.31418696177 C 1264.50514285714 625.06618696177 1265.57714285714 620.44218696177 1267.72114285714 616.44218696177 C 1269.86514285714 612.44218696177 1272.82514285714 609.29018696177 1276.60114285714 606.98618696177 C 1280.37714285714 604.68218696177 1284.72914285714 603.53018696177 1289.65714285714 603.53018696177 C 1294.52114285714 603.53018696177 1298.76114285714 604.63418696177 1302.37714285714 606.84218696177 C 1305.99314285714 609.05018696177 1308.79314285714 612.10618696177 1310.77714285714 616.01018696177 C 1312.76114285714 619.91418696177 1313.75314285714 624.36218696177 1313.75314285714 629.35418696177 C 1313.75314285714 630.37818696177 1313.43314285714 631.19418696177 1312.79314285714 631.80218696177 C 1312.15314285714 632.41018696177 1311.32114285714 632.71418696177 1310.29714285714 632.71418696177 L 1269.49714285714 632.71418696177 L 1269.49714285714 626.57018696177 L 1311.06514285714 626.57018696177 L 1306.93714285714 629.54618696177 C 1307.00114285714 625.83418696177 1306.32914285714 622.50618696177 1304.92114285714 619.56218696177 C 1303.51314285714 616.61818696177 1301.51314285714 614.31418696177 1298.92114285714 612.65018696177 C 1296.32914285714 610.98618696177 1293.24114285714 610.15418696177 1289.65714285714 610.15418696177 C 1286.00914285714 610.15418696177 1282.80914285714 611.01818696177 1280.05714285714 612.74618696177 C 1277.30514285714 614.47418696177 1275.17714285714 616.85818696177 1273.67314285714 619.89818696177 C 1272.16914285714 622.93818696177 1271.41714285714 626.41018696177 1271.41714285714 630.31418696177 C 1271.41714285714 634.21818696177 1272.26514285714 637.67418696177 1273.96114285714 640.68218696177 C 1275.65714285714 643.69018696177 1277.97714285714 646.05818696177 1280.92114285714 647.78618696177 C 1283.86514285714 649.51418696177 1287.25714285714 650.37818696177 1291.09714285714 650.37818696177 C 1293.40114285714 650.37818696177 1295.72114285714 649.97818696177 1298.05714285714 649.17818696177 C 1300.39314285714 648.37818696177 1302.26514285714 647.37018696177 1303.67314285714 646.15418696177 C 1304.37714285714 645.57818696177 1305.17714285714 645.27418696177 1306.07314285714 645.24218696177 C 1306.96914285714 645.21018696177 1307.73714285714 645.45018696177 1308.37714285714 645.96218696177 C 1309.20914285714 646.73018696177 1309.64114285714 647.56218696177 1309.67314285714 648.45818696177 C 1309.70514285714 649.35418696177 1309.33714285714 650.12218696177 1308.56914285714 650.76218696177 C 1306.45714285714 652.55418696177 1303.76914285714 654.04218696177 1300.50514285714 655.22618696177 C 1297.24114285714 656.41018696177 1294.10514285714 657.00218696177 1291.09714285714 657.00218696177 Z M 1351.57714285714 624.17018696177 C 1351.76914285714 620.20218696177 1352.80914285714 616.65018696177 1354.69714285714 613.51418696177 C 1356.58514285714 610.37818696177 1359.04914285714 607.91418696177 1362.08914285714 606.12218696177 C 1365.12914285714 604.33018696177 1368.50514285714 603.43418696177 1372.21714285714 603.43418696177 C 1375.16114285714 603.43418696177 1377.43314285714 603.85018696177 1379.03314285714 604.68218696177 C 1380.63314285714 605.51418696177 1381.24114285714 606.73018696177 1380.85714285714 608.33018696177 C 1380.60114285714 609.29018696177 1380.16914285714 609.93018696177 1379.56114285714 610.25018696177 C 1378.95314285714 610.57018696177 1378.21714285714 610.69818696177 1377.35314285714 610.63418696177 C 1376.48914285714 610.57018696177 1375.51314285714 610.50618696177 1374.42514285714 610.44218696177 C 1370.84114285714 610.12218696177 1367.65714285714 610.49018696177 1364.87314285714 611.54618696177 C 1362.08914285714 612.60218696177 1359.88114285714 614.21818696177 1358.24914285714 616.39418696177 C 1356.61714285714 618.57018696177 1355.80114285714 621.16218696177 1355.80114285714 624.17018696177 L 1351.57714285714 624.17018696177 Z M 1352.15314285714 656.52218696177 C 1351.00114285714 656.52218696177 1350.10514285714 656.20218696177 1349.46514285714 655.56218696177 C 1348.82514285714 654.92218696177 1348.50514285714 654.02618696177 1348.50514285714 652.87418696177 L 1348.50514285714 607.65818696177 C 1348.50514285714 606.50618696177 1348.82514285714 605.61018696177 1349.46514285714 604.97018696177 C 1350.10514285714 604.33018696177 1351.00114285714 604.01018696177 1352.15314285714 604.01018696177 C 1353.30514285714 604.01018696177 1354.20114285714 604.33018696177 1354.84114285714 604.97018696177 C 1355.48114285714 605.61018696177 1355.80114285714 606.50618696177 1355.80114285714 607.65818696177 L 1355.80114285714 652.87418696177 C 1355.80114285714 654.02618696177 1355.48114285714 654.92218696177 1354.84114285714 655.56218696177 C 1354.20114285714 656.20218696177 1353.30514285714 656.52218696177 1352.15314285714 656.52218696177 Z M 1469.84914285714 656.52218696177 C 1468.76114285714 656.52218696177 1467.86514285714 656.17018696177 1467.16114285714 655.46618696177 C 1466.45714285714 654.76218696177 1466.10514285714 653.86618696177 1466.10514285714 652.77818696177 L 1466.10514285714 585.29018696177 C 1466.10514285714 584.20218696177 1466.45714285714 583.30618696177 1467.16114285714 582.60218696177 C 1467.86514285714 581.89818696177 1468.76114285714 581.54618696177 1469.84914285714 581.54618696177 L 1514.87314285714 581.54618696177 C 1515.89714285714 581.54618696177 1516.77714285714 581.88218696177 1517.51314285714 582.55418696177 C 1518.24914285714 583.22618696177 1518.61714285714 584.10618696177 1518.61714285714 585.19418696177 C 1518.61714285714 586.15418696177 1518.24914285714 586.98618696177 1517.51314285714 587.69018696177 C 1516.77714285714 588.39418696177 1515.89714285714 588.74618696177 1514.87314285714 588.74618696177 L 1473.59314285714 588.74618696177 L 1473.59314285714 615.24218696177 L 1503.64114285714 615.24218696177 C 1504.72914285714 615.24218696177 1505.62514285714 615.59418696177 1506.32914285714 616.29818696177 C 1507.03314285714 617.00218696177 1507.38514285714 617.86618696177 1507.38514285714 618.89018696177 C 1507.38514285714 619.91418696177 1507.03314285714 620.77818696177 1506.32914285714 621.48218696177 C 1505.62514285714 622.18618696177 1504.72914285714 622.53818696177 1503.64114285714 622.53818696177 L 1473.59314285714 622.53818696177 L 1473.59314285714 649.32218696177 L 1514.87314285714 649.32218696177 C 1515.89714285714 649.32218696177 1516.77714285714 649.67418696177 1517.51314285714 650.37818696177 C 1518.24914285714 651.08218696177 1518.61714285714 651.91418696177 1518.61714285714 652.87418696177 C 1518.61714285714 653.96218696177 1518.24914285714 654.84218696177 1517.51314285714 655.51418696177 C 1516.77714285714 656.18618696177 1515.89714285714 656.52218696177 1514.87314285714 656.52218696177 L 1469.84914285714 656.52218696177 Z M 1598.87314285714 656.52218696177 C 1597.78514285714 656.52218696177 1596.88914285714 656.17018696177 1596.18514285714 655.46618696177 C 1595.48114285714 654.76218696177 1595.12914285714 653.89818696177 1595.12914285714 652.87418696177 L 1595.12914285714 627.91418696177 C 1595.12914285714 623.94618696177 1594.37714285714 620.68218696177 1592.87314285714 618.12218696177 C 1591.36914285714 615.56218696177 1589.32114285714 613.64218696177 1586.72914285714 612.36218696177 C 1584.13714285714 611.08218696177 1581.20914285714 610.44218696177 1577.94514285714 610.44218696177 C 1574.80914285714 610.44218696177 1571.97714285714 611.05018696177 1569.44914285714 612.26618696177 C 1566.92114285714 613.48218696177 1564.92114285714 615.14618696177 1563.44914285714 617.25818696177 C 1561.97714285714 619.37018696177 1561.24114285714 621.77018696177 1561.24114285714 624.45818696177 L 1555.96114285714 624.45818696177 C 1556.08914285714 620.42618696177 1557.17714285714 616.82618696177 1559.22514285714 613.65818696177 C 1561.27314285714 610.49018696177 1563.99314285714 607.99418696177 1567.38514285714 606.17018696177 C 1570.77714285714 604.34618696177 1574.55314285714 603.43418696177 1578.71314285714 603.43418696177 C 1583.25714285714 603.43418696177 1587.32114285714 604.37818696177 1590.90514285714 606.26618696177 C 1594.48914285714 608.15418696177 1597.32114285714 610.92218696177 1599.40114285714 614.57018696177 C 1601.48114285714 618.21818696177 1602.52114285714 622.66618696177 1602.52114285714 627.91418696177 L 1602.52114285714 652.87418696177 C 1602.52114285714 653.89818696177 1602.16914285714 654.76218696177 1601.46514285714 655.46618696177 C 1600.76114285714 656.17018696177 1599.89714285714 656.52218696177 1598.87314285714 656.52218696177 Z M 1557.59314285714 656.52218696177 C 1556.44114285714 656.52218696177 1555.52914285714 656.18618696177 1554.85714285714 655.51418696177 C 1554.18514285714 654.84218696177 1553.84914285714 653.96218696177 1553.84914285714 652.87418696177 L 1553.84914285714 607.75418696177 C 1553.84914285714 606.60218696177 1554.18514285714 605.69018696177 1554.85714285714 605.01818696177 C 1555.52914285714 604.34618696177 1556.44114285714 604.01018696177 1557.59314285714 604.01018696177 C 1558.68114285714 604.01018696177 1559.56114285714 604.34618696177 1560.23314285714 605.01818696177 C 1560.90514285714 605.69018696177 1561.24114285714 606.60218696177 1561.24114285714 607.75418696177 L 1561.24114285714 652.87418696177 C 1561.24114285714 653.96218696177 1560.90514285714 654.84218696177 1560.23314285714 655.51418696177 C 1559.56114285714 656.18618696177 1558.68114285714 656.52218696177 1557.59314285714 656.52218696177 Z M 1665.01714285714 657.00218696177 C 1659.96114285714 657.00218696177 1655.41714285714 655.83418696177 1651.38514285714 653.49818696177 C 1647.35314285714 651.16218696177 1644.16914285714 647.97818696177 1641.83314285714 643.94618696177 C 1639.49714285714 639.91418696177 1638.32914285714 635.33818696177 1638.32914285714 630.21818696177 C 1638.32914285714 625.16218696177 1639.46514285714 620.61818696177 1641.73714285714 616.58618696177 C 1644.00914285714 612.55418696177 1647.09714285714 609.37018696177 1651.00114285714 607.03418696177 C 1654.90514285714 604.69818696177 1659.32114285714 603.53018696177 1664.24914285714 603.53018696177 C 1668.53714285714 603.53018696177 1672.40914285714 604.44218696177 1675.86514285714 606.26618696177 C 1679.32114285714 608.09018696177 1682.10514285714 610.50618696177 1684.21714285714 613.51418696177 L 1684.21714285714 585.29018696177 C 1684.21714285714 584.13818696177 1684.56914285714 583.22618696177 1685.27314285714 582.55418696177 C 1685.97714285714 581.88218696177 1686.87314285714 581.54618696177 1687.96114285714 581.54618696177 C 1689.04914285714 581.54618696177 1689.94514285714 581.88218696177 1690.64914285714 582.55418696177 C 1691.35314285714 583.22618696177 1691.70514285714 584.13818696177 1691.70514285714 585.29018696177 L 1691.70514285714 630.60218696177 C 1691.57714285714 635.59418696177 1690.34514285714 640.09018696177 1688.00914285714 644.09018696177 C 1685.67314285714 648.09018696177 1682.50514285714 651.24218696177 1678.50514285714 653.54618696177 C 1674.50514285714 655.85018696177 1670.00914285714 657.00218696177 1665.01714285714 657.00218696177 Z M 1665.01714285714 650.28218696177 C 1668.72914285714 650.28218696177 1672.04114285714 649.40218696177 1674.95314285714 647.64218696177 C 1677.86514285714 645.88218696177 1680.16914285714 643.49818696177 1681.86514285714 640.49018696177 C 1683.56114285714 637.48218696177 1684.40914285714 634.05818696177 1684.40914285714 630.21818696177 C 1684.40914285714 626.44218696177 1683.56114285714 623.03418696177 1681.86514285714 619.99418696177 C 1680.16914285714 616.95418696177 1677.86514285714 614.57018696177 1674.95314285714 612.84218696177 C 1672.04114285714 611.11418696177 1668.72914285714 610.25018696177 1665.01714285714 610.25018696177 C 1661.36914285714 610.25018696177 1658.07314285714 611.11418696177 1655.12914285714 612.84218696177 C 1652.18514285714 614.57018696177 1649.84914285714 616.95418696177 1648.12114285714 619.99418696177 C 1646.39314285714 623.03418696177 1645.52914285714 626.44218696177 1645.52914285714 630.21818696177 C 1645.52914285714 634.05818696177 1646.39314285714 637.48218696177 1648.12114285714 640.49018696177 C 1649.84914285714 643.49818696177 1652.18514285714 645.88218696177 1655.12914285714 647.64218696177 C 1658.07314285714 649.40218696177 1661.36914285714 650.28218696177 1665.01714285714 650.28218696177 Z M 1749.59314285714 657.00218696177 C 1745.81714285714 657.00218696177 1742.07314285714 656.36218696177 1738.36114285714 655.08218696177 C 1734.64914285714 653.80218696177 1731.64114285714 651.88218696177 1729.33714285714 649.32218696177 C 1728.63314285714 648.55418696177 1728.34514285714 647.69018696177 1728.47314285714 646.73018696177 C 1728.60114285714 645.77018696177 1729.08114285714 644.93818696177 1729.91314285714 644.23418696177 C 1730.80914285714 643.59418696177 1731.73714285714 643.33818696177 1732.69714285714 643.46618696177 C 1733.65714285714 643.59418696177 1734.45714285714 644.01018696177 1735.09714285714 644.71418696177 C 1736.63314285714 646.50618696177 1738.66514285714 647.88218696177 1741.19314285714 648.84218696177 C 1743.72114285714 649.80218696177 1746.52114285714 650.28218696177 1749.59314285714 650.28218696177 C 1754.32914285714 650.28218696177 1757.75314285714 649.46618696177 1759.86514285714 647.83418696177 C 1761.97714285714 646.20218696177 1763.06514285714 644.23418696177 1763.12914285714 641.93018696177 C 1763.12914285714 639.62618696177 1762.04114285714 637.72218696177 1759.86514285714 636.21818696177 C 1757.68914285714 634.71418696177 1754.10514285714 633.54618696177 1749.11314285714 632.71418696177 C 1742.64914285714 631.69018696177 1737.91314285714 629.89818696177 1734.90514285714 627.33818696177 C 1731.89714285714 624.77818696177 1730.39314285714 621.73818696177 1730.39314285714 618.21818696177 C 1730.39314285714 614.95418696177 1731.25714285714 612.23418696177 1732.98514285714 610.05818696177 C 1734.71314285714 607.88218696177 1737.01714285714 606.25018696177 1739.89714285714 605.16218696177 C 1742.77714285714 604.07418696177 1745.94514285714 603.53018696177 1749.40114285714 603.53018696177 C 1753.68914285714 603.53018696177 1757.38514285714 604.26618696177 1760.48914285714 605.73818696177 C 1763.59314285714 607.21018696177 1766.10514285714 609.19418696177 1768.02514285714 611.69018696177 C 1768.66514285714 612.52218696177 1768.92114285714 613.38618696177 1768.79314285714 614.28218696177 C 1768.66514285714 615.17818696177 1768.15314285714 615.91418696177 1767.25714285714 616.49018696177 C 1766.48914285714 616.93818696177 1765.60914285714 617.08218696177 1764.61714285714 616.92218696177 C 1763.62514285714 616.76218696177 1762.77714285714 616.29818696177 1762.07314285714 615.53018696177 C 1760.47314285714 613.67418696177 1758.61714285714 612.31418696177 1756.50514285714 611.45018696177 C 1754.39314285714 610.58618696177 1751.96114285714 610.15418696177 1749.20914285714 610.15418696177 C 1745.68914285714 610.15418696177 1742.87314285714 610.87418696177 1740.76114285714 612.31418696177 C 1738.64914285714 613.75418696177 1737.59314285714 615.56218696177 1737.59314285714 617.73818696177 C 1737.59314285714 619.21018696177 1737.99314285714 620.49018696177 1738.79314285714 621.57818696177 C 1739.59314285714 622.66618696177 1740.96914285714 623.62618696177 1742.92114285714 624.45818696177 C 1744.87314285714 625.29018696177 1747.60914285714 625.99418696177 1751.12914285714 626.57018696177 C 1755.92914285714 627.33818696177 1759.72114285714 628.47418696177 1762.50514285714 629.97818696177 C 1765.28914285714 631.48218696177 1767.27314285714 633.24218696177 1768.45714285714 635.25818696177 C 1769.64114285714 637.27418696177 1770.23314285714 639.46618696177 1770.23314285714 641.83418696177 C 1770.23314285714 644.84218696177 1769.35314285714 647.48218696177 1767.59314285714 649.75418696177 C 1765.83314285714 652.02618696177 1763.40114285714 653.80218696177 1760.29714285714 655.08218696177 C 1757.19314285714 656.36218696177 1753.62514285714 657.00218696177 1749.59314285714 657.00218696177 Z"/></svg>